HIERARCHY
ROOT Hips
{
	OFFSET 0.00 0.00 0.00
	CHANNELS 6 Xposition Yposition Zposition Xrotation Yrotation Zrotation
	JOINT LeftUpLeg
	{
		OFFSET 3.25772 0.00000 0.00000
		CHANNELS 3 Xrotation Yrotation Zrotation
		JOINT LeftLeg
		{
			OFFSET 0.00000 -15.35355 0.00000
			CHANNELS 3 Xrotation Yrotation Zrotation
			JOINT LeftFoot
			{
				OFFSET 0.00000 -16.48949 0.00000
				CHANNELS 3 Xrotation Yrotation Zrotation
				JOINT LeftToeBase
				{
					OFFSET 0.00000 -1.72224 6.42750
					CHANNELS 3 Xrotation Yrotation Zrotation
					End Site
					{
						OFFSET 0.00000 0.00000 2.95275
					}
				}
			}
		}
	}
	JOINT RightUpLeg
	{
		OFFSET -3.25772 0.00000 0.00000
		CHANNELS 3 Xrotation Yrotation Zrotation
		JOINT RightLeg
		{
			OFFSET 0.00000 -15.35355 0.00000
			CHANNELS 3 Xrotation Yrotation Zrotation
			JOINT RightFoot
			{
				OFFSET 0.00000 -16.48949 0.00000
				CHANNELS 3 Xrotation Yrotation Zrotation
				JOINT RightToeBase
				{
					OFFSET 0.00000 -1.72224 6.42750
					CHANNELS 3 Xrotation Yrotation Zrotation
					End Site
					{
						OFFSET 0.00000 0.00000 2.95275
					}
				}
			}
		}
	}
	JOINT Spine
	{
		OFFSET 0.00000 0.03937 0.00000
		CHANNELS 3 Xrotation Yrotation Zrotation
		JOINT Spine1
		{
			OFFSET 0.00000 10.14986 0.00000
			CHANNELS 3 Xrotation Yrotation Zrotation
			JOINT Neck
			{
				OFFSET 0.00000 9.84250 0.00000
				CHANNELS 3 Xrotation Yrotation Zrotation
				JOINT Head
				{
					OFFSET 0.00000 4.54023 0.00000
					CHANNELS 3 Xrotation Yrotation Zrotation
					End Site
					{
						OFFSET 0.00000 4.52755 0.00000
					}
				}
			}
			JOINT LeftShoulder
			{
				OFFSET 0.00000 9.84250 0.00000
				CHANNELS 3 Xrotation Yrotation Zrotation
				JOINT LeftArm
				{
					OFFSET 7.21510 -0.00003 0.00000
					CHANNELS 3 Xrotation Yrotation Zrotation
					JOINT LeftForeArm
					{
						OFFSET 10.66411 -0.00004 0.00000
						CHANNELS 3 Xrotation Yrotation Zrotation
						JOINT LeftHand
						{
							OFFSET 8.93656 -0.00003 0.00000
							CHANNELS 3 Xrotation Yrotation Zrotation
							JOINT L_Wrist_End
							{
								OFFSET 3.93700 -0.00001 0.00000
								CHANNELS 3 Xrotation Yrotation Zrotation
							}
						}
					}
				}
			}
			JOINT RightShoulder
			{
				OFFSET 0.00000 9.84250 0.00000
				CHANNELS 3 Xrotation Yrotation Zrotation
				JOINT RightArm
				{
					OFFSET -7.21510 -0.00003 0.00000
					CHANNELS 3 Xrotation Yrotation Zrotation
					JOINT RightForeArm
					{
						OFFSET -10.66411 -0.00004 0.00000
						CHANNELS 3 Xrotation Yrotation Zrotation
						JOINT RightHand
						{
							OFFSET -8.93656 -0.00003 0.00000
							CHANNELS 3 Xrotation Yrotation Zrotation
							JOINT R_Wrist_End
							{
								OFFSET -5.41338 -0.00002 0.00000
								CHANNELS 3 Xrotation Yrotation Zrotation
							}
						}
					}
				}
			}
		}
	}
}
MOTION
Frames: 12
Frame Time: 0.008333
 2.1956 32.5870 37.5796 4.2308 1.9987 -2.8624 18.9835 11.3821 3.4477 0.9136 -0.0000 0.0000 -6.5543 -10.7894 1.9532 -42.4436 0.0000 0.0000 -25.5875 -7.6378 0.1161 6.8996 -0.0000 0.0000 0.4298 -13.2767 6.4105 -37.1671 0.0000 -0.0000 -17.2138 -8.5034 -7.0704 31.4883 -1.2524 5.5063 5.4253 13.9845 -0.4164 -46.2893 -28.6958 -3.1246 11.0941 2.3009 11.4990 -14.2156 -34.1085 -57.9222 -0.0006 -70.3639 -0.0004 9.8866 6.0207 25.7728 -0.0000 0.0000 -0.0000 19.7096 -8.4468 -3.1001 4.2621 14.3952 64.5986 -0.0001 26.0004 0.0000 -21.5034 -10.4625 -18.9921 -0.0000 0.0000 -0.0000
 2.2168 32.4722 38.0007 4.4246 1.9738 -2.7668 19.5041 11.3434 3.3815 1.0258 0.0000 0.0000 -6.6811 -10.8709 1.7963 -42.8944 0.0000 0.0000 -25.8540 -6.3861 0.2405 5.1283 -0.0000 0.0000 -0.3569 -13.8324 6.1658 -37.0233 0.0000 -0.0000 -17.2305 -8.7224 -7.1395 31.2539 -1.3361 5.6987 5.1188 14.0210 0.1957 -46.0038 -27.8243 -3.5280 11.2449 2.3278 11.6297 -14.0073 -33.7574 -57.3985 -0.0006 -70.0579 -0.0004 9.0010 5.8846 25.7634 -0.0000 0.0000 -0.0000 19.6572 -8.5654 -2.9172 4.8657 14.3638 64.0011 -0.0001 26.1412 0.0000 -21.5910 -10.7734 -18.8969 -0.0000 -0.0000 0.0000
 2.2445 32.3719 38.4220 4.5550 1.6611 -2.5610 20.1234 11.5384 3.1069 1.1505 0.0000 0.0000 -6.5888 -10.9981 1.7853 -43.4166 0.0000 -0.0000 -26.1418 -5.1582 0.3940 3.6931 -0.0000 0.0000 -0.9227 -14.3690 6.1907 -37.1456 0.0000 -0.0000 -17.3019 -8.8739 -7.3057 31.1907 -1.2879 5.8856 4.9006 13.6890 1.2155 -46.1168 -26.6366 -4.3908 11.1010 2.3195 11.6994 -13.5914 -33.2476 -57.1551 -0.0006 -69.7921 -0.0004 8.7372 5.8772 26.0062 -0.0000 -0.0000 0.0000 19.3895 -8.4569 -2.9860 4.9981 13.6826 63.7959 -0.0001 25.8472 0.0000 -21.0887 -10.7656 -18.7904 -0.0000 0.0000 -0.0000
 2.2614 32.2750 38.8511 4.7233 1.5691 -2.4582 20.5386 11.7516 3.0316 1.5065 0.0000 0.0000 -6.5904 -11.2632 1.5515 -44.0361 0.0000 0.0000 -26.4681 -4.1470 0.5690 2.6869 -0.0000 0.0000 -1.3666 -15.0048 6.4020 -37.7449 0.0000 -0.0000 -17.2584 -9.0594 -7.3310 30.9409 -1.3718 6.0421 4.6170 13.5822 1.5224 -45.9041 -26.3151 -4.5940 11.2680 2.4393 11.8403 -13.4969 -32.8172 -56.9757 -0.0006 -69.1965 -0.0004 9.0836 5.7414 26.1117 -0.0000 0.0000 -0.0000 19.1530 -8.5804 -2.8568 5.2273 13.5587 63.4061 -0.0001 25.5497 0.0000 -20.2497 -10.9780 -18.6043 -0.0000 0.0000 -0.0000
 2.2831 32.1903 39.2914 4.8074 1.6269 -2.2655 20.9697 11.9076 2.9682 1.9741 -0.0000 0.0000 -6.4237 -11.8102 1.5599 -44.6661 0.0000 0.0000 -26.8931 -3.8551 0.5570 2.5398 -0.0000 0.0000 -1.8809 -15.0526 6.9421 -37.9646 0.0000 -0.0000 -17.1994 -9.3421 -7.6183 30.7524 -1.3789 6.3106 4.1039 13.3138 2.7748 -45.5913 -24.9519 -5.3755 11.0473 2.4157 12.0981 -13.0105 -32.2752 -57.1051 -0.0005 -68.7278 -0.0004 9.2015 5.5801 26.0848 -0.0000 -0.0000 0.0000 19.3255 -8.5611 -2.5029 5.1756 13.2895 62.7254 -0.0001 25.4259 0.0000 -20.7867 -10.7280 -18.5458 -0.0000 0.0000 -0.0000
 2.3194 32.1238 39.7406 4.8581 1.6839 -2.1713 21.3812 11.9819 2.9678 2.4945 0.0000 -0.0000 -6.0265 -12.2301 1.4501 -45.6584 0.0000 0.0000 -27.3745 -3.6400 0.6014 3.0399 -0.0000 0.0000 -2.3335 -14.9021 6.9747 -38.1709 0.0000 0.0000 -17.2500 -9.6524 -7.8641 30.8785 -1.3073 6.7490 3.5258 12.6487 4.3666 -45.3851 -22.9581 -6.5926 11.0757 2.3777 12.2052 -12.8159 -31.6996 -57.1849 -0.0005 -68.2267 -0.0004 9.3792 5.4041 25.9383 -0.0000 0.0000 -0.0000 19.2353 -8.6475 -2.2991 5.1624 13.4795 62.0470 -0.0001 25.0979 0.0000 -19.9644 -11.1765 -19.1241 -0.0000 -0.0000 0.0000
 2.3327 32.0678 40.2057 4.9282 1.6154 -2.0939 21.6950 13.0582 3.0270 3.0894 -0.0000 0.0000 -5.4749 -13.5150 1.1344 -46.8211 0.0000 0.0000 -27.9291 -3.3545 0.7504 4.0597 -0.0000 0.0000 -2.6081 -14.4702 6.9277 -38.1295 0.0000 0.0000 -17.2465 -9.9566 -8.0192 30.7613 -1.3141 7.1044 3.4130 12.2523 5.5849 -45.4270 -21.2439 -7.6718 11.4262 2.4085 12.0622 -12.7040 -31.2159 -57.0452 -0.0005 -67.3914 -0.0003 12.2263 5.8057 27.7733 -0.0000 -0.0000 0.0000 19.0343 -8.5298 -2.3116 5.0662 13.1192 61.8213 -0.0001 24.5017 0.0000 -19.1900 -10.4144 -18.9937 -0.0000 0.0000 -0.0000
 2.3477 32.0198 40.6845 4.9888 1.6670 -2.0085 21.9865 13.4560 3.1647 3.7438 -0.0000 0.0000 -4.6576 -14.4433 1.0451 -48.2212 0.0000 0.0000 -28.6546 -2.6381 0.8123 5.8075 -0.0000 0.0000 -2.9614 -14.2038 6.2907 -38.2515 0.0000 0.0000 -17.2920 -10.2966 -8.2974 30.7389 -1.2219 7.5855 2.7500 11.0219 7.7500 -44.8841 -18.5676 -9.3820 11.6346 2.4494 12.0963 -12.6441 -30.7366 -57.3210 -0.0005 -66.4340 -0.0003 12.6013 5.5396 27.9521 -0.0000 -0.0000 0.0000 18.9119 -8.5066 -2.2060 4.9867 13.0609 61.3348 -0.0001 24.2590 0.0000 -19.8129 -9.9598 -18.9867 -0.0000 0.0000 -0.0000
 2.3576 31.9809 41.1527 5.0958 1.7258 -2.0490 21.9882 14.1657 3.5175 4.7024 -0.0000 0.0000 -3.9080 -15.6462 0.8030 -49.8464 0.0000 0.0000 -29.3717 -2.0631 0.9602 7.8728 -0.0000 0.0000 -3.1920 -13.5765 5.2160 -38.0543 0.0000 0.0000 -17.3220 -10.7108 -8.4456 30.7121 -1.3419 7.9842 2.3540 10.7375 8.9248 -44.4460 -17.0890 -10.2067 12.0346 2.7126 12.2020 -12.6478 -30.0495 -57.7411 -0.0005 -65.7147 -0.0003 12.7909 4.9829 27.7063 -0.0000 0.0000 -0.0000 18.9191 -8.1837 -2.0827 4.6486 13.0386 60.7533 -0.0001 24.0379 0.0000 -19.7984 -10.2718 -18.9055 -0.0000 0.0000 -0.0000
 2.3504 31.9577 41.6132 5.5070 1.8699 -2.2797 21.3527 14.4795 4.1958 6.1122 -0.0000 0.0000 -3.3008 -16.7890 0.8131 -51.1886 0.0000 0.0000 -30.4306 -1.9595 1.3288 10.1272 -0.0000 0.0000 -3.1722 -12.9632 3.7781 -37.6565 0.0000 -0.0000 -17.6477 -11.1585 -8.6734 30.9299 -1.0859 8.8685 1.2953 10.4761 9.7538 -43.4680 -15.9425 -11.1992 12.0330 2.4939 12.1248 -12.1282 -29.4583 -57.9712 -0.0005 -65.1032 -0.0003 12.7563 5.0103 28.2851 -0.0000 -0.0000 0.0000 18.4637 -8.3066 -2.2420 4.3557 13.0173 60.5204 -0.0001 23.5850 0.0000 -18.8538 -10.2028 -19.2711 -0.0000 0.0000 -0.0000
 2.3466 31.9388 42.1069 5.6025 1.8810 -2.2980 21.2113 15.5491 4.5705 7.2011 -0.0000 0.0000 -2.2026 -18.2906 0.3126 -52.7145 0.0000 0.0000 -31.0214 -1.4748 1.5491 12.0020 -0.0000 0.0000 -2.6425 -12.3072 2.6796 -37.4424 0.0000 0.0000 -17.7224 -11.5084 -8.9244 30.9790 -1.0460 9.3439 0.4793 9.8515 11.0748 -42.4752 -14.4241 -12.0613 12.2519 2.8062 12.2377 -11.9986 -29.2463 -58.5252 -0.0004 -64.0576 -0.0003 12.5872 4.8654 28.5095 -0.0000 0.0000 -0.0000 18.3297 -7.9988 -2.0306 4.3992 13.4284 59.7342 -0.0001 23.6375 0.0000 -19.3087 -10.5178 -19.3555 -0.0000 0.0000 -0.0000
 2.3325 31.9343 42.5937 6.0912 2.0850 -2.6362 20.4393 15.6853 5.3399 8.5788 -0.0000 0.0000 -1.4689 -18.9076 -0.2160 -53.7361 0.0000 0.0000 -31.9265 -1.3307 1.8636 13.7783 -0.0000 0.0000 -1.7210 -11.4911 2.0282 -37.1619 0.0000 -0.0000 -17.9989 -12.0817 -9.2701 30.8551 -0.6022 10.5748 -0.6278 9.3345 12.2069 -41.1119 -13.1214 -13.6118 12.5356 2.6717 12.0192 -11.6312 -28.8734 -59.0415 -0.0004 -63.4124 -0.0003 11.8927 5.2390 28.2810 -0.0000 0.0000 -0.0000 18.1030 -8.3293 -2.1557 4.0330 13.5665 59.2388 -0.0001 23.4988 0.0000 -18.9855 -10.6449 -19.3704 -0.0000 0.0000 -0.0000
